<?xml version="1.0" encoding="utf-8"?>
<!-- Generator: Adobe Illustrator 27.5.0, SVG Export Plug-In . SVG Version: 6.00 Build 0)  -->
<svg version="1.1" xmlns="http://www.w3.org/2000/svg" xmlns:xlink="http://www.w3.org/1999/xlink" x="0px" y="0px"
	 viewBox="0 0 500 500" style="enable-background:new 0 0 500 500;" xml:space="preserve">
<g id="BACKGROUND">
	<rect style="fill:#FFF7F2;" width="500" height="500"/>
</g>
<g id="OBJECTS">
	<path style="opacity:0.67;fill:#E0CCFF;" d="M370.612,181.669L370.612,181.669c-12.257,5.892-27.105,0.684-32.997-11.573l0,0
		c-5.892-12.257-0.684-27.105,11.573-32.997h0c12.257-5.892,27.105-0.684,32.997,11.573l0,0
		C388.077,160.928,382.869,175.777,370.612,181.669z"/>
	<path style="fill:#E0CCFF;" d="M167.428,392.353L167.428,392.353c-5.754,0-10.461-4.707-10.461-10.461l0,0
		c0-5.753,4.707-10.461,10.461-10.461l0,0c5.753,0,10.461,4.707,10.461,10.461l0,0C177.889,387.646,173.181,392.353,167.428,392.353
		z"/>
	<path style="opacity:0.67;fill:#E0CCFF;" d="M387.879,201.458L387.879,201.458c-4.567,0-8.304-3.737-8.304-8.304l0,0
		c0-4.567,3.737-8.304,8.304-8.304h0c4.567,0,8.304,3.737,8.304,8.304l0,0C396.182,197.722,392.445,201.458,387.879,201.458z"/>
	<g>
		<path style="opacity:0.67;fill:#E0CCFF;" d="M394.957,292.3c-10.258-35.197-42.738-60.923-81.246-60.923
			c-46.744,0-84.639,37.894-84.639,84.639c0,9.632,1.615,18.885,4.579,27.51H81.43c-22.589,0-41.071,18.482-41.071,41.071l0,0
			c0,22.589,18.482,41.071,41.071,41.071h216.639c16.159,0,30.215-9.459,36.908-23.112h57.667c30.337,0,55.158-24.821,55.158-55.158
			C447.801,317.838,424.231,293.525,394.957,292.3z"/>
		<path style="opacity:0.67;fill:#E0CCFF;" d="M416.368,262.415L416.368,262.415c10.461,0,19.02-8.559,19.02-19.02v0
			c0-10.461-8.559-19.02-19.02-19.02l0,0c-10.461,0-19.02,8.559-19.02,19.02v0C397.348,253.856,405.907,262.415,416.368,262.415z"/>
	</g>
	<path style="opacity:0.67;fill:#E0CCFF;" d="M66.084,321.862L66.084,321.862c-8.688,0-15.797-7.108-15.797-15.797l0,0
		c0-8.688,7.109-15.797,15.797-15.797l0,0c8.688,0,15.797,7.109,15.797,15.797l0,0C81.881,314.754,74.772,321.862,66.084,321.862z"
		/>
	<g>
		<path style="fill:#FF7272;" d="M395.123,208.576h-49.92c-7.708,0-13.956-6.248-13.956-13.956v-46.602
			c0-7.707,6.248-13.956,13.956-13.956h49.92c7.707,0,13.956,6.248,13.956,13.956v46.602
			C409.078,202.328,402.83,208.576,395.123,208.576z"/>
		<path style="fill:#FFAAAA;" d="M382,208.576h-49.92c-7.707,0-13.956-6.248-13.956-13.956v-46.602
			c0-7.707,6.248-13.956,13.956-13.956H382c7.707,0,13.956,6.248,13.956,13.956v46.602C395.956,202.328,389.707,208.576,382,208.576
			z"/>
		<g>
			<path style="fill:#FFAAAA;" d="M363.375,184.429c-13.848,0-25.114-11.452-25.114-25.527v-33.117
				c0-14.076,11.266-25.527,25.114-25.527s25.114,11.452,25.114,25.527v33.117C388.489,172.977,377.223,184.429,363.375,184.429z
				 M363.375,108.996c-9.107,0-16.517,7.531-16.517,16.788v33.117c0,9.257,7.409,16.788,16.517,16.788
				c9.107,0,16.517-7.531,16.517-16.788v-33.117C379.892,116.527,372.482,108.996,363.375,108.996z"/>
		</g>
		<g>
			<path style="fill:#FF7272;" d="M367.598,165.905c0,3.08-1.237,5.877-3.235,7.904c-1.182,1.205-2.63,2.135-4.243,2.689
				c-1.111,0.391-2.296,0.599-3.533,0.599c-0.043,0-0.086,0-0.13-0.004c-1.189-0.012-2.332-0.22-3.403-0.595
				c-4.338-1.5-7.478-5.69-7.478-10.594c0-3.08,1.237-5.877,3.235-7.904c1.994-2.031,4.746-3.288,7.776-3.288
				c0.29,0,0.577,0.012,0.864,0.04c2.689,0.207,5.111,1.412,6.913,3.248C366.362,160.028,367.598,162.825,367.598,165.905z"/>
			<path style="fill:#FF7272;" d="M360.12,174.416v12.505c0,1.249-0.636,2.354-1.594,2.997c-0.557,0.375-1.221,0.594-1.939,0.594
				c-1.943,0-3.533-1.616-3.533-3.591v-12.505c0-0.036,0-0.068,0.004-0.104c0.051-1.927,1.621-3.487,3.529-3.487
				c0.974,0,1.853,0.403,2.497,1.053C359.724,172.529,360.12,173.43,360.12,174.416z"/>
		</g>
		<path style="fill:#563971;" d="M367.598,165.905c0,3.08-1.237,5.877-3.235,7.904c-1.182,1.205-2.63,2.135-4.243,2.689v10.422
			c0,1.249-0.636,2.354-1.594,2.997c-1.217-0.567-2.069-1.819-2.069-3.264v-10.422c-1.248-0.431-2.398-1.085-3.4-1.919
			c-0.742-0.61-1.401-1.317-1.967-2.103c-1.327-1.851-2.112-4.122-2.112-6.572c0-5.263,3.627-9.716,8.471-10.885
			c2.689,0.207,5.111,1.412,6.913,3.248C366.362,160.028,367.598,162.825,367.598,165.905z"/>
	</g>
	<path style="fill:#FF735E;" d="M99.934,278.986c0,3.739-3.031,6.77-6.77,6.77s-6.77-3.031-6.77-6.77c0-3.739,3.031-6.77,6.77-6.77
		S99.934,275.247,99.934,278.986z"/>
	<path style="fill:#FF735E;" d="M298.133,127.096c0,3.739-3.031,6.77-6.77,6.77c-3.739,0-6.77-3.031-6.77-6.77
		c0-3.739,3.031-6.77,6.77-6.77C295.102,120.326,298.133,123.357,298.133,127.096z"/>
	<path style="fill:#FF735E;" d="M181.034,76.304c0,2.767-2.243,5.01-5.01,5.01c-2.767,0-5.01-2.243-5.01-5.01
		c0-2.767,2.243-5.01,5.01-5.01C178.791,71.294,181.034,73.537,181.034,76.304z"/>
	<circle style="fill:#05ACE3;" cx="323.411" cy="71.576" r="7.221"/>
	<path style="fill:#05ACE3;" d="M56.606,335.4c0,2.742-2.223,4.965-4.965,4.965c-2.742,0-4.965-2.223-4.965-4.965
		c0-2.742,2.223-4.965,4.965-4.965C54.383,330.435,56.606,332.658,56.606,335.4z"/>
	<path style="fill:#05ACE3;" d="M435.724,170.665c0,2.742-2.223,4.965-4.965,4.965c-2.742,0-4.965-2.223-4.965-4.965
		s2.223-4.965,4.965-4.965C433.501,165.7,435.724,167.923,435.724,170.665z"/>
	<path style="fill:#FFC74C;" d="M64.73,265.446c0,2.742-2.223,4.965-4.965,4.965c-2.742,0-4.965-2.223-4.965-4.965
		c0-2.742,2.223-4.965,4.965-4.965C62.508,260.482,64.73,262.704,64.73,265.446z"/>
	<circle style="fill:#FFC74C;" cx="209.156" cy="115.153" r="7.221"/>
	<path style="fill:#FFC74C;" d="M50.739,80.398c0,3.988-3.233,7.221-7.221,7.221s-7.221-3.233-7.221-7.221
		c0-3.988,3.233-7.221,7.221-7.221S50.739,76.41,50.739,80.398z"/>
	<circle style="fill:#563971;" cx="234.431" cy="88.976" r="4.513"/>
	<circle style="fill:#563971;" cx="305.289" cy="168.859" r="4.513"/>
	<circle style="fill:#563971;" cx="451.52" cy="117.408" r="4.513"/>
	<circle style="fill:#563971;" cx="44.421" cy="232.95" r="3.159"/>
	<circle style="fill:#563971;" cx="118" cy="293.708" r="2.708"/>
	<circle style="fill:#563971;" cx="445.201" cy="213.992" r="2.708"/>
	<path style="fill:#563971;" d="M410.449,88.073c0,1.994-1.617,3.611-3.611,3.611c-1.994,0-3.611-1.617-3.611-3.611
		c0-1.994,1.617-3.611,3.611-3.611C408.833,84.463,410.449,86.079,410.449,88.073z"/>
	<polygon style="fill:#C2B8FF;" points="82.91,48.626 85.667,53.667 90.708,56.424 85.667,59.181 82.91,64.222 80.153,59.181 
		75.112,56.424 80.153,53.667 	"/>
	<polygon style="fill:#C2B8FF;" points="439.885,146.293 441.708,149.627 445.043,151.451 441.708,153.274 439.885,156.608 
		438.061,153.274 434.727,151.451 438.061,149.627 	"/>
	<polygon style="fill:#C2B8FF;" points="321.341,115.76 322.95,118.702 325.892,120.312 322.95,121.921 321.341,124.863 
		319.732,121.921 316.789,120.312 319.732,118.702 	"/>
	<polygon style="fill:#C2B8FF;" points="41.516,113.848 44.698,119.667 50.516,122.849 44.698,126.031 41.516,131.85 
		38.333,126.031 32.515,122.849 38.333,119.667 	"/>
	<polygon style="fill:#C2B8FF;" points="275.255,80.781 278.437,86.6 284.256,89.782 278.437,92.964 275.255,98.783 272.073,92.964 
		266.254,89.782 272.073,86.6 	"/>
	<polygon style="fill:#C2B8FF;" points="410.601,113.275 413.783,119.094 419.602,122.276 413.783,125.458 410.601,131.277 
		407.419,125.458 401.6,122.276 407.419,119.094 	"/>
	<path style="fill:#C2B8FF;" d="M437.477,434.153H59.732c-1.862,0-3.385-1.523-3.385-3.385l0,0c0-1.862,1.523-3.385,3.385-3.385
		h377.745c1.862,0,3.385,1.523,3.385,3.385l0,0C440.862,432.63,439.339,434.153,437.477,434.153z"/>
	<path style="fill:#FF8800;" d="M285.466,164.338c0-8.47-6.867-15.337-15.337-15.337h-63.041c-5.861,0-11.21,3.34-13.782,8.607
		l-6.972,14.276h-41.856c-11.39,0-20.623,9.233-20.623,20.623v45.995c0,11.39,9.233,20.623,20.623,20.623h121.08
		c11.39,0,20.623-9.233,20.623-20.623L285.466,164.338z"/>
	<g>
		<path style="fill:#563971;" d="M158.698,254.888H99.452c-11.357,0-20.564-9.207-20.564-20.565V129.945
			c0-11.357,9.207-20.564,20.564-20.564h59.246c11.357,0,20.564,9.207,20.564,20.564v104.379
			C179.262,245.681,170.055,254.888,158.698,254.888z"/>
		<path style="fill:#E6E6FF;" d="M152.33,242.785H77.008c-7.984,0-14.456-6.472-14.456-14.456v-91.061l39.864-45.584h48.608
			c8.705,0,15.761,7.056,15.761,15.761v120.884C166.786,236.313,160.314,242.785,152.33,242.785z"/>
		<g>
			<path style="fill:#AB95FC;" d="M148.409,128.438H83.068c-2.62,0-4.764-2.144-4.764-4.765l0,0c0-2.62,2.144-4.764,4.764-4.764
				h65.341c2.62,0,4.764,2.144,4.764,4.764l0,0C153.173,126.294,151.029,128.438,148.409,128.438z"/>
			<path style="fill:#AB95FC;" d="M148.409,157.025H83.068c-2.62,0-4.764-2.144-4.764-4.764l0,0c0-2.62,2.144-4.765,4.764-4.765
				h65.341c2.62,0,4.764,2.144,4.764,4.765l0,0C153.173,154.881,151.029,157.025,148.409,157.025z"/>
			<path style="fill:#AB95FC;" d="M148.409,185.612H83.068c-2.62,0-4.764-2.144-4.764-4.764l0,0c0-2.62,2.144-4.764,4.764-4.764
				h65.341c2.62,0,4.764,2.144,4.764,4.764l0,0C153.173,183.468,151.029,185.612,148.409,185.612z"/>
			<path style="fill:#AB95FC;" d="M148.409,214.198H83.068c-2.62,0-4.764-2.144-4.764-4.764l0,0c0-2.62,2.144-4.764,4.764-4.764
				h65.341c2.62,0,4.764,2.144,4.764,4.764l0,0C153.173,212.054,151.029,214.198,148.409,214.198z"/>
		</g>
	</g>
	<path style="fill:#C2B8FF;" d="M101.937,91.684l-39.463,45.133h34.198c3.149,0,5.693-2.569,5.661-5.718L101.937,91.684z"/>
	<path style="fill:#FFAC17;" d="M267.413,185.099c0-8.47-6.867-15.337-15.337-15.337h-63.041c-5.861,0-11.21,3.34-13.782,8.607
		l-6.972,14.276h-41.856c-11.39,0-20.623,9.233-20.623,20.623v45.995c0,11.39,9.233,20.623,20.623,20.623h121.08
		c11.39,0,20.623-9.233,20.623-20.623L267.413,185.099z"/>
	<g>
		<g>
			<rect x="259.015" y="394.832" style="fill:#B0A4D5;" width="63.511" height="25.002"/>
			<g>
				<defs>
					<path id="SVGID_1_" d="M420.292,213.601h-253.5c-5.477,0-12.253,3.262-12.253,10.158v160.139v5.611v7.391
						c0,6.272,6.777,12.626,12.253,12.626h253.5c5.478,0,6.708-6.354,6.708-12.626v-9.621v-3.38V223.76
						C427,216.863,425.77,213.601,420.292,213.601z"/>
				</defs>
				<use xlink:href="#SVGID_1_"  style="overflow:visible;fill:#473567;"/>
				<clipPath id="SVGID_00000039836116123866106830000005074920904777037237_">
					<use xlink:href="#SVGID_1_"  style="overflow:visible;"/>
				</clipPath>
				<path style="clip-path:url(#SVGID_00000039836116123866106830000005074920904777037237_);fill:#C9C6F6;" d="M154.538,383.899
					v13.001c0,6.272,6.777,12.626,12.253,12.626h253.5c5.478,0,6.708-6.354,6.708-12.626v-13.001"/>
				
					<rect x="162.011" y="224.702" style="clip-path:url(#SVGID_00000039836116123866106830000005074920904777037237_);fill:#FDE5E7;" width="254.314" height="148.18"/>
				
					<rect x="162.011" y="224.702" style="clip-path:url(#SVGID_00000039836116123866106830000005074920904777037237_);fill:#8659D8;" width="254.314" height="148.18"/>
			</g>
			<path style="fill:#C9C6F6;" d="M338.956,423.463c0,2.17-1.761,3.932-3.933,3.932h-88.509c-2.172,0-3.933-1.762-3.933-3.932l0,0
				c0-2.17,1.761-3.932,3.933-3.932h88.509C337.195,419.531,338.956,421.293,338.956,423.463L338.956,423.463z"/>
			<path style="fill:#F5C4BB;" d="M228.395,342.77"/>
			<g>
				<defs>
					<path id="SVGID_00000060018567049368183200000016056048509671801513_" d="M420.292,213.601h-253.5
						c-5.477,0-12.253,3.262-12.253,10.158v160.14v5.611v7.391c0,6.272,6.777,12.626,12.253,12.626h253.5
						c5.478,0,6.708-6.354,6.708-12.626v-9.621v-3.38V223.76C427,216.863,425.77,213.601,420.292,213.601z"/>
				</defs>
				<clipPath id="SVGID_00000054979479523346974670000004700643655072869767_">
					<use xlink:href="#SVGID_00000060018567049368183200000016056048509671801513_"  style="overflow:visible;"/>
				</clipPath>
			</g>
		</g>
		<path style="fill:#A197CA;" d="M296.935,401.638c-2.813,2.813-7.375,2.813-10.188,0c-2.813-2.813-2.813-7.374,0-10.188
			c2.814-2.813,7.375-2.813,10.188,0C299.748,394.263,299.748,398.824,296.935,401.638z"/>
	</g>
	<rect x="178.917" y="239.267" style="fill:#563971;" width="106.514" height="122.762"/>
	<rect x="295.36" y="239.267" style="fill:#563971;" width="106.514" height="122.762"/>
	<g>
		<path style="fill:#AB95FC;" d="M270.988,258.223h-81.239c-1.489,0-2.708-1.219-2.708-2.708l0,0c0-1.489,1.219-2.708,2.708-2.708
			h81.239c1.489,0,2.708,1.219,2.708,2.708l0,0C273.696,257.004,272.477,258.223,270.988,258.223z"/>
		<path style="fill:#AB95FC;" d="M270.988,276.276h-81.239c-1.489,0-2.708-1.219-2.708-2.708l0,0c0-1.489,1.219-2.708,2.708-2.708
			h81.239c1.489,0,2.708,1.219,2.708,2.708l0,0C273.696,275.057,272.477,276.276,270.988,276.276z"/>
		<path style="fill:#AB95FC;" d="M270.988,293.426h-81.239c-1.489,0-2.708-1.219-2.708-2.708l0,0c0-1.489,1.219-2.708,2.708-2.708
			h81.239c1.489,0,2.708,1.219,2.708,2.708l0,0C273.696,292.208,272.477,293.426,270.988,293.426z"/>
		<path style="fill:#AB95FC;" d="M270.085,315.542h-25.274c-1.489,0-2.708-1.219-2.708-2.708l0,0c0-1.489,1.219-2.708,2.708-2.708
			h25.274c1.489,0,2.708,1.219,2.708,2.708l0,0C272.793,314.323,271.575,315.542,270.085,315.542z"/>
		<path style="fill:#AB95FC;" d="M270.085,332.692h-25.274c-1.489,0-2.708-1.219-2.708-2.708l0,0c0-1.489,1.219-2.708,2.708-2.708
			h25.274c1.489,0,2.708,1.219,2.708,2.708l0,0C272.793,331.474,271.575,332.692,270.085,332.692z"/>
		<path style="fill:#AB95FC;" d="M270.085,348.94h-25.274c-1.489,0-2.708-1.219-2.708-2.708l0,0c0-1.489,1.219-2.708,2.708-2.708
			h25.274c1.489,0,2.708,1.219,2.708,2.708l0,0C272.793,347.721,271.575,348.94,270.085,348.94z"/>
	</g>
	<g>
		<g>
			<rect x="315.281" y="266.392" style="fill:#D4D2FD;" width="144.821" height="68.556"/>
			<rect x="315.281" y="266.392" style="fill:#F2F2FF;" width="144.821" height="15.243"/>
			<path style="fill:#BBBBF7;" d="M326.348,274.43c0,1.473-1.194,2.668-2.668,2.668c-1.473,0-2.668-1.194-2.668-2.668
				c0-1.473,1.194-2.668,2.668-2.668C325.154,271.763,326.348,272.957,326.348,274.43z"/>
			<path style="fill:#BBBBF7;" d="M336.765,274.43c0,1.473-1.194,2.668-2.668,2.668c-1.473,0-2.668-1.194-2.668-2.668
				c0-1.473,1.194-2.668,2.668-2.668C335.571,271.763,336.765,272.957,336.765,274.43z"/>
			<path style="fill:#BBBBF7;" d="M347.753,274.43c0,1.473-1.194,2.668-2.668,2.668c-1.473,0-2.668-1.194-2.668-2.668
				c0-1.473,1.194-2.668,2.668-2.668C346.559,271.763,347.753,272.957,347.753,274.43z"/>
		</g>
		<path style="fill:#AB95FC;" d="M364.739,302.226h-3.435c-0.245-0.57-0.527-1.12-0.843-1.648l2.07-2.501
			c0.181-0.219,0.15-0.546-0.069-0.728l-5.437-4.5c-0.219-0.181-0.546-0.15-0.728,0.069l-1.812,2.19
			c-0.735-0.355-1.506-0.649-2.306-0.872l0,0v-2.867c0-0.284-0.233-0.517-0.517-0.517h-7.058c-0.284,0-0.517,0.233-0.517,0.517v3.01
			c-0.796,0.254-1.561,0.577-2.288,0.961l-2.004-2.422c-0.181-0.219-0.509-0.25-0.728-0.069l-5.437,4.5
			c-0.219,0.181-0.25,0.509-0.069,0.728l2.455,2.966c0,0,0,0,0,0c-0.21,0.384-0.403,0.778-0.577,1.183h-4.671
			c-0.284,0-0.517,0.233-0.517,0.517v7.058c0,0.284,0.233,0.517,0.517,0.517h3.755c0.243,1.342,0.677,2.618,1.272,3.798c0,0,0,0,0,0
			l-2.82,3.408c-0.181,0.219-0.15,0.546,0.069,0.728l5.437,4.5c0.219,0.181,0.547,0.15,0.728-0.069l2.2-2.659
			c0.842,0.481,1.738,0.876,2.677,1.176v3.76c0,0.284,0.233,0.517,0.517,0.517h7.058c0.284,0,0.517-0.233,0.517-0.517v-3.617l0,0
			c1.021-0.286,1.993-0.684,2.906-1.18c0,0,0,0,0,0l2.086,2.52c0.181,0.219,0.509,0.25,0.728,0.069l5.437-4.5
			c0.219-0.181,0.25-0.509,0.069-0.728l-2.596-3.138l0,0c0.668-1.255,1.151-2.624,1.412-4.068h2.519
			c0.284,0,0.517-0.233,0.517-0.517v-7.058C365.256,302.458,365.023,302.226,364.739,302.226z M348.371,314.671
			c-3.801,0-6.882-3.081-6.882-6.882c0-3.801,3.081-6.882,6.882-6.882c3.801,0,6.882,3.081,6.882,6.882
			C355.253,311.59,352.172,314.671,348.371,314.671z"/>
		<path style="fill:#AB95FC;" d="M442.404,297.318h-64.599c-1.778,0-3.233-1.455-3.233-3.233l0,0c0-1.778,1.455-3.233,3.233-3.233
			h64.599c1.778,0,3.233,1.455,3.233,3.233l0,0C445.637,295.863,444.182,297.318,442.404,297.318z"/>
		<path style="fill:#AB95FC;" d="M442.404,311.397h-64.599c-1.778,0-3.233-1.455-3.233-3.233l0,0c0-1.778,1.455-3.233,3.233-3.233
			h64.599c1.778,0,3.233,1.455,3.233,3.233l0,0C445.637,309.942,444.182,311.397,442.404,311.397z"/>
		<path style="fill:#AB95FC;" d="M442.404,322.929h-64.599c-1.778,0-3.233-1.455-3.233-3.233l0,0c0-1.778,1.455-3.233,3.233-3.233
			h64.599c1.778,0,3.233,1.455,3.233,3.233l0,0C445.637,321.474,444.182,322.929,442.404,322.929z"/>
	</g>
	<g>
		<path style="fill:#6FE5AD;" d="M421.751,422.18L421.751,422.18c-19.769,0-35.943-16.174-35.943-35.943v0
			c0-19.769,16.174-35.943,35.943-35.943h0c19.769,0,35.943,16.174,35.943,35.943v0C457.694,406.006,441.52,422.18,421.751,422.18z"
			/>
		<path style="fill:#00D976;" d="M421.751,413.632L421.751,413.632c-15.067,0-27.395-12.328-27.395-27.395v0
			c0-15.067,12.328-27.395,27.395-27.395l0,0c15.067,0,27.395,12.328,27.395,27.395v0
			C449.146,401.305,436.819,413.632,421.751,413.632z"/>
		
			<polyline style="fill:none;stroke:#FFFFFF;stroke-width:7.0269;stroke-linecap:round;stroke-linejoin:round;stroke-miterlimit:10;" points="
			403.964,385.31 420.5,399.178 439.525,376.074 		"/>
	</g>
	<path style="fill:#F2F2FF;" d="M174.177,362.029H74.83c-5.089,0-9.252-4.164-9.252-9.253v-36.557c0-5.089,4.164-9.253,9.252-9.253
		h99.348c5.089,0,9.253,4.164,9.253,9.253v36.557C183.43,357.865,179.266,362.029,174.177,362.029z"/>
	<g>
		
			<text transform="matrix(1 0 0 1 76.1079 348.876)" style="fill:#563971; font-family:'LeagueSpartan-Bold'; font-size:34.0011px; letter-spacing:7;">CMS</text>
	</g>
	<g>
		
			<rect x="178.758" y="350.113" transform="matrix(0.5841 0.8117 -0.8117 0.5841 396.1913 6.1132)" style="fill:#8A8AFF;" width="26.745" height="79.072"/>
		<path style="fill:#8A8AFF;" d="M236.917,392.009l-27.785,2.792l-16.31-22.666l11.475-25.459l27.785-2.792l3.54,4.92l-20.04,14.42
			c-3.527,2.538-4.336,7.5-1.797,11.028c2.538,3.527,7.5,4.336,11.027,1.798l20.039-14.42l3.54,4.92L236.917,392.009z"/>
		<path style="fill:#8A8AFF;" d="M161.87,443.657c-9.931,7.146-23.067,6.586-32.286-0.517l19.24-13.844
			c1.764-1.269,2.846-3.144,3.172-5.143c0.326-1.998-0.105-4.12-1.374-5.884c-2.538-3.528-7.501-4.337-11.027-1.799l-19.17,13.794
			c-3.647-10.931,0.018-23.412,9.864-30.497c12.119-8.721,29.015-5.965,37.736,6.154C176.745,418.04,173.99,434.936,161.87,443.657z
			"/>
	</g>
	<g>
		<path style="fill:#FFD4DA;" d="M275.607,158.639h-46.604c-5.659,0-10.289-4.63-10.289-10.289l0,0
			c0-5.659,4.63-10.289,10.289-10.289h46.604c5.659,0,10.289,4.63,10.289,10.289v0C285.897,154.009,281.267,158.639,275.607,158.639
			z"/>
		<circle style="fill:#FFD4DA;" cx="262.897" cy="137.455" r="17.552"/>
		
			<ellipse transform="matrix(0.2298 -0.9732 0.9732 0.2298 49.8856 339.7588)" style="fill:#FFD4DA;" cx="239.595" cy="138.363" rx="9.987" ry="9.987"/>
	</g>
	<g>
		<path style="fill:#FFD4DA;" d="M460.453,235.171h-46.604c-5.659,0-10.289-4.63-10.289-10.289l0,0
			c0-5.659,4.63-10.289,10.289-10.289h46.605c5.659,0,10.289,4.63,10.289,10.289v0C470.742,230.541,466.112,235.171,460.453,235.171
			z"/>
		<circle style="fill:#FFD4DA;" cx="447.742" cy="213.987" r="17.552"/>
		
			<ellipse transform="matrix(0.7071 -0.7071 0.7071 0.7071 -27.638 363.0658)" style="fill:#FFD4DA;" cx="424.44" cy="214.895" rx="9.987" ry="9.987"/>
	</g>
	<g>
		<path style="fill:#FFD4DA;" d="M430.106,95.264h-58.067c-7.051,0-12.82-5.769-12.82-12.82l0,0c0-7.051,5.769-12.82,12.82-12.82
			h58.067c7.051,0,12.82,5.769,12.82,12.82v0C442.927,89.495,437.157,95.264,430.106,95.264z"/>
		<path style="fill:#FFD4DA;" d="M429.734,53.405c8.54,8.541,8.54,22.388,0,30.928c-8.541,8.54-22.388,8.54-30.928,0
			c-8.54-8.541-8.54-22.388,0-30.928C407.346,44.865,421.193,44.865,429.734,53.405z"/>
		
			<ellipse transform="matrix(0.2298 -0.9732 0.9732 0.2298 228.5988 428.8486)" style="fill:#FFD4DA;" cx="385.236" cy="70.001" rx="12.443" ry="12.443"/>
	</g>
</g>
</svg>
